<?xml version="1.0" standalone="no"?><!DOCTYPE svg PUBLIC "-//W3C//DTD SVG 1.1//EN" "http://www.w3.org/Graphics/SVG/1.1/DTD/svg11.dtd"><svg t="1498011590826" class="icon" style="" viewBox="0 0 1024 1024" version="1.1" xmlns="http://www.w3.org/2000/svg" p-id="8873" xmlns:xlink="http://www.w3.org/1999/xlink" width="32" height="32"><defs><style type="text/css"></style></defs><path d="M833.01888 797.75744c0 0-133.90336-133.08928-286.61248-285.12256 99.65056-100.07552 205.13792-205.91104 285.25568-286.0288-11.6224-11.59168-24.26368-24.20224-38.75328-38.656-95.0784 95.10912-190.29504 190.3616-285.62944 285.72672C412.84608 379.6224 315.04384 282.12736 239.88224 206.96576c-11.59168 11.6224-24.20224 24.26368-38.656 38.75328 88.89856 88.86784 177.94048 177.87904 267.06432 266.97216-88.46848 88.50432-177.01376 177.08032-265.71264 265.8048l38.2976 41.25184c0 0 122.40896-123.15648 266.54208-267.94496 94.66368 94.62784 189.43488 189.36832 284.35456 284.25216L833.01888 797.75744z" p-id="8874" fill="#8a8a8a"></path></svg>