<?xml version="1.0" standalone="no"?><!DOCTYPE svg PUBLIC "-//W3C//DTD SVG 1.1//EN" "http://www.w3.org/Graphics/SVG/1.1/DTD/svg11.dtd"><svg t="1498008761289" class="icon" style="" viewBox="0 0 1024 1024" version="1.1" xmlns="http://www.w3.org/2000/svg" p-id="5162" xmlns:xlink="http://www.w3.org/1999/xlink" width="32" height="32"><defs><style type="text/css"></style></defs><path d="M510.756 27.963c-267.326 0-484.035 216.71-484.035 484.037 0 267.328 216.711 484.035 484.037 484.035s484.035-216.709 484.035-484.035-216.71-484.037-484.037-484.037zM745.578 686.913c8.009 8.011 12.423 18.66 12.423 29.989s-4.415 21.98-12.425 29.99c-8.009 8.011-18.66 12.422-29.989 12.422s-21.979-4.411-29.989-12.422l-172.171-172.169-172.172 172.169c-8.012 8.011-18.661 12.422-29.99 12.422s-21.979-4.411-29.989-12.422c-8.011-8.009-12.423-18.659-12.423-29.988s4.411-21.979 12.423-29.989l172.171-172.173-172.172-172.173c-8.011-8.010-12.423-18.661-12.423-29.99s4.413-21.98 12.423-29.99c8.010-8.011 18.659-12.422 29.988-12.422s21.98 4.411 29.99 12.422l172.172 172.172 172.17-172.172c8.010-8.011 18.659-12.422 29.989-12.422s21.98 4.411 29.99 12.422c8.010 8.010 12.423 18.661 12.423 29.99s-4.414 21.981-12.423 29.99l-172.167 172.173 172.171 172.171z" p-id="5163" fill="#ed3f14"></path></svg>