<?xml version="1.0" standalone="no"?><!DOCTYPE svg PUBLIC "-//W3C//DTD SVG 1.1//EN" "http://www.w3.org/Graphics/SVG/1.1/DTD/svg11.dtd"><svg t="1498008472696" class="icon" style="" viewBox="0 0 1024 1024" version="1.1" xmlns="http://www.w3.org/2000/svg" p-id="2373" xmlns:xlink="http://www.w3.org/1999/xlink" width="32" height="32"><defs><style type="text/css"></style></defs><path d="M511.298524 64.076364c-246.549256 0-446.415282 199.846584-446.415282 446.413236 0 246.534929 199.866027 446.420399 446.415282 446.420399 246.553349 0 446.418352-199.88547 446.418352-446.420399C957.716876 263.922948 757.852896 64.076364 511.298524 64.076364zM511.304663 248.408603c32.885991 0 59.533908 26.64894 59.533908 59.528791 0 32.874735-26.647917 59.564607-59.533908 59.564607-32.877805 0-59.543118-26.688849-59.543118-59.564607C451.762569 275.057543 478.426859 248.408603 511.304663 248.408603zM562.031998 769.33081l-41.925878 0c-21.917172 0-44.655036-19.073404-44.655036-36.526915L475.451084 491.512387l-14.876826 0c-21.918195 0-39.692001-17.768689-39.692001-39.685861s17.773805-39.679721 39.692001-39.679721c0 0 48.41364-0.113587 49.660027 0 20.128433 1.496074 34.724873 10.302647 34.724873 26.683732l0 251.134691 17.072841 0c21.917172 0 39.684838 17.769712 39.684838 39.686884C601.717859 751.6051 583.94917 769.33081 562.031998 769.33081z" p-id="2374" fill="#2d8cf0"></path><path d="M592.567455 787.757484" p-id="2375" fill="#2d8cf0"></path></svg>