<?xml version="1.0" standalone="no"?><!DOCTYPE svg PUBLIC "-//W3C//DTD SVG 1.1//EN" "http://www.w3.org/Graphics/SVG/1.1/DTD/svg11.dtd"><svg t="1498791008747" class="icon" style="" viewBox="0 0 1024 1024" version="1.1" xmlns="http://www.w3.org/2000/svg" p-id="6749" xmlns:xlink="http://www.w3.org/1999/xlink" width="230" height="230"><defs><style type="text/css"></style></defs><path d="M431.093728 381.908851C431.093728 381.908851 383.213225 336.733845 318.242808 373.630432 260.112705 408.850997 270.376233 473.314767 270.376233 473.314767 270.376233 473.314767 141.241379 497.924873 141.241379 627.069136 144.138566 756.031657 281.48667 757.328945 281.48667 757.328945L497.643245 757.328945 497.643245 622.446267 429.613049 622.446267 543.960368 501.762165 658.305137 622.446267 590.276679 622.446267 590.276679 757.328931 786.720019 757.328931C786.720019 757.328931 914.545452 757.456038 932.500533 634.775234 941.05029 500.601316 808.947857 474.156512 808.947857 474.156512 808.947857 474.156512 823.982317 275.536735 638.476306 252.895092 479.469007 236.963387 431.093728 381.908851 431.093728 381.908851L431.093728 381.908851Z" p-id="6750" fill="#1296db"></path></svg>